<svg width="22" height="20" viewBox="0 0 22 20" fill="none" xmlns="http://www.w3.org/2000/svg">
<circle cx="10.7143" cy="5" r="4.5" stroke="#fff"/>
<path d="M20.8412 19.095C20.8602 19.1998 20.8293 19.291 20.7603 19.3646C20.6872 19.4425 20.5693 19.5 20.4286 19.5H10.7143H0.938022C0.804243 19.5 0.689582 19.4475 0.618042 19.3768C0.551346 19.311 0.523049 19.2333 0.535105 19.1446C0.606528 18.6188 0.787398 18.0936 1.08059 17.5823C1.52556 16.8062 2.22128 16.0766 3.1437 15.4454C4.06576 14.8144 5.18761 14.3003 6.44665 13.9396C7.70516 13.5791 9.06878 13.381 10.4562 13.3592C11.8436 13.3373 13.2218 13.4921 14.5085 13.8129C15.7956 14.1338 16.959 14.6128 17.9325 15.216C18.9065 15.8194 19.6625 16.5296 20.1707 17.2955C20.4916 17.7791 20.7231 18.4429 20.8412 19.095Z" stroke="#fff"/>
</svg>
